<svg width="30" height="31" viewBox="0 0 30 31" fill="none" xmlns="http://www.w3.org/2000/svg">
<g clip-path="url(#clip0_198_350)">
<g clip-path="url(#clip1_198_350)">
<path d="M19.6948 18.3752L17.5999 18.8976C17.3486 18.9602 17.0813 18.9412 16.839 18.8435C16.5967 18.7458 16.3927 18.5747 16.2581 18.3564L11.6415 10.8765C11.5068 10.6582 11.4489 10.4048 11.4766 10.1548C11.5043 9.90474 11.6159 9.67187 11.7946 9.49164L13.2855 7.99065C13.5539 7.72051 13.7217 7.37123 13.7632 6.99615C13.8048 6.62108 13.7179 6.24084 13.5157 5.91352L11.4426 2.55456C11.3211 2.35761 11.1611 2.18499 10.9717 2.04655C10.7823 1.90812 10.5672 1.80659 10.3388 1.74776C10.1103 1.68894 9.87299 1.67396 9.64029 1.7037C9.40759 1.73344 9.18411 1.8073 8.9826 1.92108L7.42195 2.80104C6.5092 3.31609 5.80667 4.11452 5.42608 5.06939C5.04548 6.02425 5.00866 7.08072 5.32148 8.07081L5.69017 9.23846C7.57299 15.2013 11.001 20.6256 15.6455 24.991L15.7518 25.0914C17.3384 26.5826 19.6979 26.8747 21.5438 25.8338L23.1737 24.914C23.3753 24.8004 23.5509 24.649 23.6907 24.4686C23.8304 24.2882 23.9314 24.0823 23.9879 23.8626C24.0445 23.6429 24.0555 23.4138 24.0203 23.1884C23.9851 22.9629 23.9044 22.7456 23.7828 22.5487L21.7084 19.1876C21.5066 18.8598 21.2004 18.6029 20.8368 18.4562C20.4731 18.3095 20.072 18.281 19.6948 18.3752Z" fill="#959595"/>
</g>
</g>
<defs>
<clipPath id="clip0_198_350">
<rect width="24" height="24" fill="white" transform="translate(6.06047) scale(1.01263) rotate(14.4406)"/>
</clipPath>
<clipPath id="clip1_198_350">
<rect width="26" height="25" fill="white" transform="translate(5.16996 -1.35949) scale(1.01263) rotate(14.4406)"/>
</clipPath>
</defs>
</svg>
