<svg width="28" height="28" viewBox="0 0 28 28" fill="none" xmlns="http://www.w3.org/2000/svg">
<path d="M24.9999 13.9999C24.9999 20.0653 20.0653 24.9999 13.9999 24.9999C7.93457 24.9999 2.99999 20.0653 2.99999 13.9999C2.99999 7.93457 7.93457 2.99999 13.9999 2.99999C16.5932 2.99999 19.0462 3.90748 20.9999 5.52608V3.99998C20.9999 3.44728 21.4477 2.99999 21.9999 2.99999C22.5521 2.99999 22.9999 3.44728 22.9999 3.99998V7.99997C22.9999 8.55266 22.5521 8.99996 21.9999 8.99996H17.9999C17.4477 8.99996 16.9999 8.55266 16.9999 7.99997C16.9999 7.44727 17.4477 6.99997 17.9999 6.99997H19.6519C18.0661 5.71547 16.0871 4.99998 13.9999 4.99998C9.03756 4.99998 4.99998 9.03706 4.99998 13.9999C4.99998 18.9628 9.03756 22.9999 13.9999 22.9999C18.9623 22.9999 22.9999 18.9628 22.9999 13.9999C22.9999 13.4472 23.4477 12.9999 23.9999 12.9999C24.5521 12.9999 24.9999 13.4472 24.9999 13.9999ZM13.9999 6.99997C13.4477 6.99997 12.9999 7.44727 12.9999 7.99997V13.9999C12.9999 14.3788 13.2138 14.7245 13.5526 14.8944L17.5526 16.8944C17.6962 16.9657 17.849 16.9999 17.9989 16.9999C18.3661 16.9999 18.7191 16.7978 18.8944 16.4472C19.1415 15.9531 18.9413 15.3525 18.4471 15.1054L14.9998 13.3818V8.00007C14.9998 7.44737 14.5521 6.99997 13.9999 6.99997Z" fill="#959595"/>
</svg>
