<svg width="24" height="24" viewBox="0 0 24 24" fill="none" xmlns="http://www.w3.org/2000/svg">
<path d="M19.8325 22.8H4.16748C3.90226 22.8 3.64791 22.6947 3.46037 22.5071C3.27284 22.3196 3.16748 22.0652 3.16748 21.8V21.0825C3.16748 18.74 4.09804 16.4934 5.75446 14.837C7.41087 13.1806 9.65746 12.25 12 12.25C14.3425 12.25 16.5891 13.1806 18.2455 14.837C19.9019 16.4934 20.8325 18.74 20.8325 21.0825V21.8C20.8325 22.0652 20.7271 22.3196 20.5396 22.5071C20.3521 22.6947 20.0977 22.8 19.8325 22.8ZM5.17248 20.8H18.8275C18.7599 19.0345 18.011 17.3637 16.738 16.1385C15.465 14.9133 13.7668 14.2289 12 14.2289C10.2331 14.2289 8.53499 14.9133 7.26197 16.1385C5.98896 17.3637 5.24006 19.0345 5.17248 20.8ZM12 10.6375C11.0663 10.638 10.1535 10.3616 9.37701 9.84326C8.60048 9.32492 7.99512 8.58793 7.63749 7.72551C7.27986 6.86309 7.18603 5.91397 7.36787 4.99822C7.54971 4.08246 7.99905 3.24121 8.65905 2.58085C9.31906 1.9205 10.1601 1.47071 11.0757 1.28839C11.9914 1.10606 12.9406 1.19939 13.8032 1.55656C14.6658 1.91373 15.4031 2.51871 15.9218 3.29496C16.4406 4.07121 16.7175 4.98388 16.7175 5.91751C16.7168 7.1687 16.2197 8.36848 15.3352 9.25344C14.4507 10.1384 13.2512 10.6362 12 10.6375ZM12 3.20001C11.4618 3.19952 10.9356 3.35868 10.4879 3.65737C10.0402 3.95606 9.69119 4.38084 9.48501 4.87796C9.27883 5.37507 9.22475 5.92218 9.32962 6.45004C9.4345 6.9779 9.6936 7.46279 10.0742 7.84334C10.4547 8.22389 10.9396 8.483 11.4674 8.58787C11.9953 8.69274 12.5424 8.63866 13.0395 8.43248C13.5367 8.2263 13.9614 7.87729 14.2601 7.4296C14.5588 6.98192 14.718 6.45569 14.7175 5.91751C14.7168 5.19699 14.4303 4.50617 13.9208 3.99668C13.4113 3.48719 12.7205 3.20067 12 3.20001Z" fill="#959595"/>
</svg>
