<svg width="28" height="28" viewBox="0 0 28 28" fill="none" xmlns="http://www.w3.org/2000/svg">
<g clip-path="url(#clip0_193_1045)">
<path d="M16.6088 3.47421C16.8895 3.63203 17.2218 3.67351 17.5333 3.5896C17.8448 3.50569 18.1101 3.3032 18.2714 3.02631C18.4048 2.79312 18.6127 2.61037 18.8623 2.50673C19.1119 2.4031 19.3892 2.38443 19.6507 2.45367C19.9122 2.52291 20.1431 2.67612 20.3072 2.8893C20.4713 3.10247 20.5593 3.36355 20.5574 3.63158C20.5574 3.95263 20.4286 4.26053 20.1993 4.48755C19.9701 4.71457 19.6591 4.8421 19.3349 4.8421C19.0107 4.8421 18.6998 4.96964 18.4705 5.19666C18.2412 5.42368 18.1124 5.73158 18.1124 6.05263C18.1124 6.37368 18.2412 6.68158 18.4705 6.9086C18.6998 7.13562 19.0107 7.26316 19.3349 7.26316C19.9786 7.26275 20.6108 7.0946 21.1681 6.7756C21.7253 6.4566 22.188 5.99799 22.5095 5.44586C22.8311 4.89372 23.0003 4.2675 23 3.63012C22.9997 2.99275 22.8301 2.36666 22.5081 1.81478C22.1861 1.2629 21.723 0.804658 21.1655 0.486103C20.608 0.167547 19.9757 -0.00010204 19.332 4.6595e-08C18.6883 0.000102133 18.056 0.167952 17.4986 0.486684C16.9412 0.805417 16.4783 1.2638 16.1565 1.81579C16.0757 1.95395 16.0232 2.10658 16.0022 2.26489C15.9812 2.4232 15.992 2.58407 16.0341 2.73821C16.0761 2.89236 16.1486 3.03675 16.2472 3.16307C16.3458 3.28938 16.4687 3.39513 16.6088 3.47421ZM21.8654 12.1053C21.5446 12.064 21.2202 12.1504 20.9636 12.3456C20.7069 12.5407 20.5389 12.8287 20.4963 13.1463C20.2397 15.1983 19.2343 17.0867 17.6695 18.4557C16.1046 19.8247 14.0882 20.5798 12.0001 20.5789H5.16643L5.96104 19.7921C6.18872 19.5653 6.31652 19.2585 6.31652 18.9387C6.31652 18.6189 6.18872 18.3121 5.96104 18.0853C4.76906 16.9003 3.95787 15.3925 3.62964 13.7519C3.30142 12.1113 3.47084 10.4112 4.11656 8.86569C4.76229 7.32022 5.85544 5.99854 7.25831 5.06713C8.66119 4.13571 10.311 3.63623 12.0001 3.63158C12.3243 3.63158 12.6352 3.50404 12.8645 3.27702C13.0937 3.05001 13.2225 2.7421 13.2225 2.42105C13.2225 2.1 13.0937 1.7921 12.8645 1.56508C12.6352 1.33806 12.3243 1.21053 12.0001 1.21053C9.93314 1.21906 7.91045 1.80397 6.16372 2.89823C4.41698 3.9925 3.01686 5.55186 2.12376 7.39767C1.23066 9.24349 0.880699 11.3011 1.11397 13.3347C1.34725 15.3684 2.15432 17.2959 3.44274 18.8963L1.3523 20.93C1.18267 21.1002 1.06776 21.3164 1.02208 21.5512C0.976387 21.7861 1.00196 22.029 1.09558 22.2495C1.18729 22.4705 1.34303 22.6598 1.54318 22.7933C1.74332 22.9269 1.97891 22.9988 2.22026 23H12.0001C14.6791 23.0004 17.2662 22.0328 19.276 20.2788C21.2859 18.5248 22.5804 16.105 22.9168 13.4732C22.9391 13.3149 22.9296 13.1538 22.8888 12.9992C22.848 12.8446 22.7766 12.6995 22.6789 12.5723C22.5811 12.4452 22.4589 12.3384 22.3193 12.2583C22.1797 12.1781 22.0255 12.1261 21.8654 12.1053ZM19.7995 8.55842C19.5769 8.46092 19.33 8.43141 19.0904 8.47368L18.8704 8.54632L18.6503 8.65526L18.467 8.81263C18.357 8.92418 18.2698 9.05571 18.2102 9.2C18.138 9.351 18.1044 9.5173 18.1124 9.68421C18.1089 9.84566 18.138 10.0062 18.198 10.1563C18.2612 10.3016 18.3526 10.4332 18.467 10.5437C18.5812 10.6559 18.7167 10.7446 18.8656 10.8049C19.0146 10.8651 19.174 10.8957 19.3349 10.8947C19.6591 10.8947 19.9701 10.7672 20.1993 10.5402C20.4286 10.3132 20.5574 10.0053 20.5574 9.68421C20.5615 9.52542 20.528 9.36787 20.4596 9.22421C20.3282 8.93333 20.0932 8.7006 19.7995 8.57053V8.55842Z" fill="#959595"/>
</g>
<defs>
<clipPath id="clip0_193_1045">
<rect width="24" height="24" fill="white"/>
</clipPath>
</defs>
</svg>
