<svg width="50" height="50" viewBox="0 0 50 50" fill="none" xmlns="http://www.w3.org/2000/svg">
<g filter="url(#filter0_i_198_127)">
<circle cx="24.9106" cy="24.9106" r="24.9106" transform="matrix(1.00359 0 0 -1.00359 0 50)" fill="black" fill-opacity="0.6"/>
</g>
<circle cx="24.9106" cy="24.9106" r="23.4106" transform="matrix(1.00359 0 0 -1.00359 0 50)" stroke="black" stroke-width="3"/>
<path d="M26.2808 24.7296L32.6034 18.417C32.7924 18.2281 32.8986 17.9718 32.8986 17.7045C32.8986 17.4372 32.7924 17.1809 32.6034 16.992C32.4144 16.803 32.1581 16.6968 31.8909 16.6968C31.6236 16.6968 31.3673 16.803 31.1783 16.992L24.8657 23.3146L18.5532 16.992C18.3642 16.803 18.1079 16.6968 17.8406 16.6968C17.5733 16.6968 17.317 16.803 17.1281 16.992C16.9391 17.1809 16.8329 17.4372 16.8329 17.7045C16.8329 17.9718 16.9391 18.2281 17.1281 18.417L23.4507 24.7296L17.1281 31.0422C17.034 31.1355 16.9593 31.2465 16.9084 31.3688C16.8574 31.4911 16.8312 31.6223 16.8312 31.7548C16.8312 31.8872 16.8574 32.0184 16.9084 32.1407C16.9593 32.263 17.034 32.374 17.1281 32.4673C17.2214 32.5614 17.3324 32.636 17.4546 32.687C17.5769 32.7379 17.7081 32.7642 17.8406 32.7642C17.9731 32.7642 18.1043 32.7379 18.2266 32.687C18.3489 32.636 18.4599 32.5614 18.5532 32.4673L24.8657 26.1447L31.1783 32.4673C31.2716 32.5614 31.3826 32.636 31.5049 32.687C31.6272 32.7379 31.7584 32.7642 31.8909 32.7642C32.0233 32.7642 32.1545 32.7379 32.2768 32.687C32.3991 32.636 32.5101 32.5614 32.6034 32.4673C32.6975 32.374 32.7721 32.263 32.8231 32.1407C32.874 32.0184 32.9003 31.8872 32.9003 31.7548C32.9003 31.6223 32.874 31.4911 32.8231 31.3688C32.7721 31.2465 32.6975 31.1355 32.6034 31.0422L26.2808 24.7296Z" fill="#C4C4C4"/>
<defs>
<filter id="filter0_i_198_127" x="0" y="0" width="55.0181" height="53.0108" filterUnits="userSpaceOnUse" color-interpolation-filters="sRGB">
<feFlood flood-opacity="0" result="BackgroundImageFix"/>
<feBlend mode="normal" in="SourceGraphic" in2="BackgroundImageFix" result="shape"/>
<feColorMatrix in="SourceAlpha" type="matrix" values="0 0 0 0 0 0 0 0 0 0 0 0 0 0 0 0 0 0 127 0" result="hardAlpha"/>
<feOffset dx="5" dy="3"/>
<feGaussianBlur stdDeviation="2.5"/>
<feComposite in2="hardAlpha" operator="arithmetic" k2="-1" k3="1"/>
<feColorMatrix type="matrix" values="0 0 0 0 1 0 0 0 0 1 0 0 0 0 1 0 0 0 0.25 0"/>
<feBlend mode="normal" in2="shape" result="effect1_innerShadow_198_127"/>
</filter>
</defs>
</svg>
