<svg width="28" height="28" viewBox="0 0 28 28" fill="none" xmlns="http://www.w3.org/2000/svg">
<path d="M19.3897 10.5465H8.45983C7.9916 10.5465 7.61176 10.1666 7.61176 9.69842C7.61176 9.23019 7.9916 8.85034 8.45983 8.85034H19.3897C19.8579 8.85034 20.2378 9.23019 20.2378 9.69842C20.2378 10.1666 19.8579 10.5465 19.3897 10.5465ZM12.0548 14.985C12.0548 14.5168 12.4346 14.137 12.9028 14.137H19.3897C19.8579 14.137 20.2378 14.5168 20.2378 14.985C20.2378 15.4533 19.8579 15.8331 19.3897 15.8331H12.9028C12.4346 15.8331 12.0548 15.4533 12.0548 14.985Z" fill="#959595"/>
<path d="M3.13158 17.5957C3.04052 16.599 2.97937 15.4376 2.97803 14.0838C2.98071 11.5364 3.19452 9.6711 3.4226 8.30034C3.82164 6.04179 5.87309 3.99034 8.13165 3.5913C9.5024 3.36321 11.3677 3.14941 13.9155 3.14673C16.4629 3.14941 18.3286 3.36321 19.6994 3.5913C21.9575 3.99034 24.0089 6.04179 24.408 8.30034C24.6361 9.6711 24.8494 11.5364 24.8525 14.0838C24.8494 16.6311 24.6361 18.4969 24.408 19.8676C24.0089 22.1262 21.9575 24.1776 19.6989 24.5767C18.3282 24.8048 16.4629 25.0181 13.9151 25.0212C12.5617 25.0199 11.4003 24.9587 10.404 24.8677C9.51847 25.5761 8.39544 26.0001 7.17332 26.0001C4.31576 26.0001 1.99873 23.6835 1.99873 20.8259C1.99873 19.6038 2.42277 18.4808 3.13113 17.5957H3.13158ZM13.9151 23.3251C15.9246 23.3229 17.7225 23.1854 19.411 22.9051C20.1614 22.7707 20.9215 22.3498 21.5513 21.72C22.1811 21.0902 22.6016 20.3305 22.7364 19.5797C23.0167 17.893 23.1537 16.095 23.1564 14.0838C23.1542 12.0734 23.0167 10.2755 22.7364 8.58779C22.602 7.83747 22.1811 7.07777 21.5513 6.44797C20.9215 5.81816 20.1618 5.3977 19.411 5.2629C17.7234 4.98259 15.9254 4.84555 13.9151 4.84288C11.9056 4.84511 10.1077 4.98259 8.4191 5.2629C7.66877 5.39725 6.90908 5.81816 6.27883 6.44797C5.64902 7.07777 5.22855 7.83747 5.09375 8.58824C4.81344 10.2768 4.67641 12.0743 4.67373 14.0842C4.67463 14.8385 4.69516 15.5621 4.73444 16.262C5.4611 15.8727 6.29132 15.6523 7.17332 15.6523C10.0309 15.6523 12.3479 17.9688 12.3479 20.8264C12.3479 21.7084 12.127 22.5382 11.7382 23.2648C12.4381 23.3041 13.1616 23.3246 13.9155 23.3251H13.9151ZM7.17332 24.3039C9.09131 24.3039 10.6518 22.7439 10.6518 20.8259C10.6518 18.908 9.09131 17.348 7.17332 17.348C5.25533 17.348 3.69488 18.908 3.69488 20.8259C3.69488 22.7439 5.25533 24.3039 7.17332 24.3039Z" fill="#959595"/>
<path d="M6.71837 21.8151C6.82639 21.7972 6.97324 21.7802 7.17365 21.7802C7.37406 21.7802 7.52091 21.7972 7.62893 21.8151C7.80658 21.8463 7.96816 22.0079 7.99985 22.186C8.01771 22.294 8.03467 22.4408 8.03467 22.6413C8.03467 22.8417 8.01771 22.9885 7.99985 23.0965C7.96861 23.2742 7.80703 23.4358 7.62893 23.4675C7.52091 23.4853 7.37406 23.5023 7.17365 23.5023C6.97324 23.5023 6.82639 23.4853 6.71837 23.4675C6.54072 23.4362 6.37914 23.2746 6.34745 23.0965C6.32959 22.9885 6.31263 22.8417 6.31263 22.6413C6.31263 22.4408 6.32959 22.294 6.34745 22.186C6.37869 22.0083 6.54027 21.8468 6.71837 21.8151ZM7.1741 21.2522C6.70587 21.2522 6.32602 20.8724 6.32602 20.4041V18.9892C6.32602 18.521 6.70587 18.1411 7.1741 18.1411C7.64232 18.1411 8.02217 18.521 8.02217 18.9892V20.4041C8.02217 20.8724 7.64232 21.2522 7.1741 21.2522Z" fill="#959595"/>
</svg>
