<svg width="24" height="24" viewBox="0 0 24 24" fill="none" xmlns="http://www.w3.org/2000/svg">
<g clip-path="url(#clip0_198_837)">
<path d="M8.63025 8.92154C8.63433 8.94147 8.64044 8.97136 8.64451 8.99128C8.78306 9.66873 9.03913 10.3118 9.3767 10.8966L3.65192 19.3433C3.54097 19.5113 3.49999 19.7168 3.53077 19.9181L4.11214 22.913L4.11418 22.923C4.19771 23.3314 4.59575 23.6029 5.00421 23.5194L8.07877 22.9217C8.27802 22.881 8.45305 22.7725 8.564 22.6045L9.48941 21.2424C9.60036 21.0744 9.64135 20.8688 9.61056 20.6675L9.278 18.9399L10.8163 18.6461C11.0155 18.6053 11.1906 18.4969 11.3015 18.3289C11.4125 18.1609 11.4535 17.9553 11.4227 17.754L11.1678 16.4568L12.6264 16.1793C12.8256 16.1385 13.0006 16.0301 13.1116 15.8621L14.364 14.0179C14.9006 14.0535 15.4569 14.0331 16.0048 13.9211C17.6527 13.6048 19.0884 12.6573 20.0297 11.2712C20.971 9.88506 21.3226 8.20436 20.9964 6.55851C20.6562 4.89477 19.7385 3.45291 18.3424 2.51369C16.9563 1.57243 15.2777 1.23072 13.6198 1.54902C10.2145 2.20396 7.97531 5.51618 8.63025 8.92154ZM12.0277 14.7241L10.1308 15.0913C9.93154 15.132 9.75652 15.2405 9.64557 15.4085C9.53462 15.5765 9.49363 15.7821 9.52442 15.9834L9.77933 17.2805L8.24103 17.5744C8.04178 17.6151 7.86676 17.7236 7.75581 17.8916C7.64486 18.0596 7.60387 18.2652 7.63466 18.4664L8.05687 20.6324L7.49216 21.4744L5.47566 21.8661L5.10031 19.9293L10.3634 12.1687C10.6498 12.4526 10.962 12.7105 11.298 12.9324C11.7561 13.2435 12.2517 13.4847 12.765 13.6599L12.0277 14.7241ZM17.4904 3.77776C18.5505 4.49509 19.2849 5.54886 19.5039 6.82225C19.7486 8.0696 19.4789 9.33912 18.7715 10.3972C18.0542 11.4572 16.9744 12.1659 15.7171 12.4127C14.4598 12.6594 13.1923 12.3997 12.1422 11.6803C11.0841 10.973 10.3576 9.90719 10.1287 8.63584C9.63087 6.04944 11.3291 3.54326 13.9155 3.04543C15.1649 2.81067 16.4423 3.06837 17.4904 3.77776Z" fill="#959595"/>
<path d="M13.1064 7.31069C13.3651 8.57592 14.6011 9.3922 15.8763 9.1314C17.1515 8.8706 17.9578 7.63663 17.6991 6.3714C17.4403 5.10616 16.1944 4.29192 14.9291 4.55069C13.6639 4.80945 12.8476 6.04545 13.1064 7.31069ZM16.2047 6.67702C16.2944 7.11537 16.0091 7.54737 15.5607 7.63906C15.1124 7.73075 14.6904 7.44341 14.6007 7.00506C14.5111 6.56671 14.7964 6.13471 15.2447 6.04302C15.693 5.95134 16.113 6.22871 16.2047 6.67702Z" fill="#959595"/>
</g>
<defs>
<clipPath id="clip0_198_837">
<rect width="20" height="20" fill="white" transform="translate(19.9251) scale(1.01687) rotate(78.4414)"/>
</clipPath>
</defs>
</svg>
