<svg width="24" height="24" viewBox="0 0 24 24" fill="none" xmlns="http://www.w3.org/2000/svg">
<path d="M19.6 12.9C19.4 12.9 19.2 12.8 19 12.8C18.6 12.7 18.2 12.6 17.8 12.4C16.8 12 15.8 12.4 15.3 13.3L14.5 14.7C12.3 13.4 10.4 11.6 9.2 9.4L10.6 8.7C11.5 8.2 11.9 7.2 11.5 6.2C11.4 5.8 11.2 5.4 11.1 5C11.1 4.8 11 4.6 11 4.4C10.8 3 9.6 2 8.1 2H5C4.1 2 3.3 2.4 2.7 3.1C2.2 3.7 1.9 4.6 2 5.5C3.4 14 9.99999 20.6 18.5 22C18.6 22 18.8 22 18.9 22C20.6 22 21.9 20.6 21.9 19V15.9C22 14.4 21 13.2 19.6 12.9ZM21 19C21 19.6 20.7 20.2 20.3 20.5C19.9 20.9 19.3 21.1 18.7 21C10.6 19.7 4.29999 13.4 3 5.3C2.9 4.7 3.1 4.2 3.5 3.7C3.9 3.3 4.4 3 5 3H8.1C9.1 3 9.9 3.7 10.1 4.6C10.1 4.8 10.2 5 10.2 5.2C10.3 5.6 10.4 6.1 10.6 6.5C10.8 7 10.6 7.5 10.1 7.8L8.2 8.8C8 8.9 7.9 9.2 8.1 9.5C9.5 12.3 11.8 14.5 14.5 16C14.7 16.1 15 16 15.2 15.8L16.2 13.9C16.4 13.4 17 13.2 17.5 13.4C17.9 13.6 18.4 13.7 18.8 13.8C19 13.9 19.2 13.9 19.4 13.9C20.3 14.1 21 14.9 21 15.9V19ZM18.5 10C18.8 10 19 9.8 19 9.5V4.5C19 4.2 18.8 4 18.5 4C18.2 4 18 4.2 18 4.5V9.5C18 9.8 18.2 10 18.5 10ZM15.5 10C15.8 10 16 9.8 16 9.5V4.5C16 4.2 15.8 4 15.5 4C15.2 4 15 4.2 15 4.5V9.5C15 9.8 15.2 10 15.5 10Z" fill="#EBEBEB"/>
</svg>
