<svg width="18" height="18" viewBox="0 0 18 18" fill="none" xmlns="http://www.w3.org/2000/svg">
<g clip-path="url(#clip0_198_193)">
<path fill-rule="evenodd" clip-rule="evenodd" d="M13.5878 2.46967C13.8807 2.17678 14.3556 2.17678 14.6485 2.46967L15.5272 3.34835C15.8201 3.64124 15.82 4.11623 15.527 4.40913L8.68927 11.25H6.75V9.31057L13.5878 2.46967ZM15.7091 1.40901C14.8305 0.530329 13.4059 0.530331 12.5272 1.40901L5.46955 8.46975C5.32897 8.61045 5.25 8.80118 5.25 9V12C5.25 12.4142 5.58579 12.75 6 12.75H9C9.19897 12.75 9.38978 12.6709 9.53048 12.5302L16.588 5.46955C17.4665 4.59086 17.4664 3.16633 16.5878 2.28769L15.7091 1.40901ZM3 0.75C1.75736 0.75 0.75 1.75736 0.75 3V15C0.75 16.2427 1.75736 17.25 3 17.25H15C16.2427 17.25 17.25 16.2427 17.25 15V9C17.25 8.58577 16.9142 8.25 16.5 8.25C16.0858 8.25 15.75 8.58577 15.75 9V15C15.75 15.4142 15.4142 15.75 15 15.75H3C2.58579 15.75 2.25 15.4142 2.25 15V3C2.25 2.58579 2.58579 2.25 3 2.25H9.75C10.1642 2.25 10.5 1.91421 10.5 1.5C10.5 1.08579 10.1642 0.75 9.75 0.75H3Z" fill="#959595"/>
</g>
<defs>
<clipPath id="clip0_198_193">
<rect width="18" height="18" fill="white"/>
</clipPath>
</defs>
</svg>
