<svg width="28" height="28" viewBox="0 0 28 28" fill="none" xmlns="http://www.w3.org/2000/svg">
<path d="M22 10L16 4.74001C15.45 4.24805 14.7379 3.97607 14 3.97607C13.2621 3.97607 12.55 4.24805 12 4.74001L6 10C5.68237 10.2841 5.4289 10.6326 5.25648 11.0223C5.08405 11.4119 4.99662 11.8339 5 12.26V21C5 21.7957 5.31607 22.5587 5.87868 23.1213C6.44129 23.6839 7.20435 24 8 24H20C20.7957 24 21.5587 23.6839 22.1213 23.1213C22.6839 22.5587 23 21.7957 23 21V12.25C23.002 11.8256 22.9139 11.4055 22.7415 11.0177C22.5691 10.6298 22.3164 10.283 22 10ZM16 22H12V17C12 16.7348 12.1054 16.4804 12.2929 16.2929C12.4804 16.1054 12.7348 16 13 16H15C15.2652 16 15.5196 16.1054 15.7071 16.2929C15.8946 16.4804 16 16.7348 16 17V22ZM21 21C21 21.2652 20.8946 21.5196 20.7071 21.7071C20.5196 21.8946 20.2652 22 20 22H18V17C18 16.2044 17.6839 15.4413 17.1213 14.8787C16.5587 14.3161 15.7957 14 15 14H13C12.2044 14 11.4413 14.3161 10.8787 14.8787C10.3161 15.4413 10 16.2044 10 17V22H8C7.73479 22 7.48043 21.8946 7.2929 21.7071C7.10536 21.5196 7 21.2652 7 21V12.25C7.00018 12.108 7.0306 11.9677 7.08922 11.8384C7.14784 11.7091 7.23333 11.5937 7.34 11.5L13.34 6.25001C13.5225 6.08969 13.7571 6.00127 14 6.00127C14.2429 6.00127 14.4775 6.08969 14.66 6.25001L20.66 11.5C20.7667 11.5937 20.8522 11.7091 20.9108 11.8384C20.9694 11.9677 20.9998 12.108 21 12.25V21Z" fill="#F26222"/>
</svg>
