<svg width="35" height="36" viewBox="0 0 35 36" fill="none" xmlns="http://www.w3.org/2000/svg">
<path d="M0 0H17C26.9411 0 35 8.05888 35 18C35 27.9411 26.9411 36 17 36H0V0Z" fill="#F26222"/>
<path d="M5.75 18C5.75 11.9249 10.6749 7 16.75 7C22.8251 7 27.75 11.9249 27.75 18C27.75 24.0751 22.8251 29 16.75 29C10.6749 29 5.75 24.0751 5.75 18Z" fill="white"/>
<path d="M22 17.25H17.5V12.75C17.5 12.5511 17.421 12.3603 17.2803 12.2197C17.1397 12.079 16.9489 12 16.75 12C16.5511 12 16.3603 12.079 16.2197 12.2197C16.079 12.3603 16 12.5511 16 12.75V17.25H11.5C11.3011 17.25 11.1103 17.329 10.9697 17.4697C10.829 17.6103 10.75 17.8011 10.75 18C10.75 18.1989 10.829 18.3897 10.9697 18.5303C11.1103 18.671 11.3011 18.75 11.5 18.75H16V23.25C16 23.4489 16.079 23.6397 16.2197 23.7803C16.3603 23.921 16.5511 24 16.75 24C16.9489 24 17.1397 23.921 17.2803 23.7803C17.421 23.6397 17.5 23.4489 17.5 23.25V18.75H22C22.1989 18.75 22.3897 18.671 22.5303 18.5303C22.671 18.3897 22.75 18.1989 22.75 18C22.75 17.8011 22.671 17.6103 22.5303 17.4697C22.3897 17.329 22.1989 17.25 22 17.25Z" fill="#F26222"/>
</svg>
