<svg width="38" height="38" viewBox="0 0 38 38" fill="none" xmlns="http://www.w3.org/2000/svg">
<path d="M7.91663 12.2708H30.0833C30.7388 12.2708 31.2708 11.7388 31.2708 11.0833C31.2708 10.4278 30.7388 9.89575 30.0833 9.89575H7.91663C7.26113 9.89575 6.72913 10.4278 6.72913 11.0833C6.72913 11.7388 7.26113 12.2708 7.91663 12.2708ZM30.0833 17.8124H7.91663C7.26113 17.8124 6.72913 18.3444 6.72913 18.9999C6.72913 19.6554 7.26113 20.1874 7.91663 20.1874H30.0833C30.7388 20.1874 31.2708 19.6554 31.2708 18.9999C31.2708 18.3444 30.7388 17.8124 30.0833 17.8124ZM30.0833 25.7291H7.91663C7.26113 25.7291 6.72913 26.2611 6.72913 26.9166C6.72913 27.5721 7.26113 28.1041 7.91663 28.1041H30.0833C30.7388 28.1041 31.2708 27.5721 31.2708 26.9166C31.2708 26.2611 30.7388 25.7291 30.0833 25.7291Z" fill="white" fill-opacity="0.9"/>
</svg>
