<svg width="107" height="44" viewBox="0 0 107 44" fill="none" xmlns="http://www.w3.org/2000/svg">
<path d="M24.0994 33.6245C24.0994 34.6261 24.1152 35.3929 24.1152 36.0814C24.1152 37.2864 23.6399 37.6777 22.4835 37.8655C11.711 39.6025 1.63555 32.3256 0.178095 21.6841C-0.962521 13.3586 3.45737 5.29922 11.0932 1.77812C18.6973 -1.72733 27.9648 0.0566935 33.6045 6.19123C36.6778 9.54019 38.4521 13.5308 38.5472 18.0691C38.6739 23.8437 38.563 29.6339 38.5947 35.4242C38.5947 36.9109 38.1511 38.0846 36.5036 38.0376C34.9511 37.975 34.6817 36.7231 34.6817 35.3929C34.6659 29.6026 34.8085 23.8124 34.555 18.0534C34.1906 9.69668 26.4281 3.40565 18.5705 4.09422C9.22382 4.89233 3.02964 12.5449 4.24946 21.2772C5.39008 29.4618 13.6595 35.4711 21.9607 34.0314C23.0696 33.8592 23.2597 33.8279 24.0994 33.6245Z" fill="white"/>
<path d="M31.3708 28.3194C31.3708 25.2365 31.3708 22.1536 31.3866 19.0863C31.4025 12.9831 26.6658 7.77183 20.5508 7.19281C14.2615 6.59813 8.65352 10.7609 7.44953 16.8797C6.27723 22.8578 9.96839 28.8828 15.8774 30.4947C19.8537 31.5901 23.5607 30.8546 27.4578 28.1003C27.4578 28.1786 27.4578 28.2411 27.4578 28.3194L27.5371 36.3006C27.743 38.2724 29.3113 38.335 29.3113 38.335C31.5767 38.335 31.355 35.7685 31.355 35.7685V28.3194H31.3708ZM19.2834 26.9736C14.9427 26.9423 11.3308 23.3586 11.3466 19.1019C11.3625 14.7514 15.1012 11.0582 19.426 11.1208C23.7825 11.1834 27.4103 14.9079 27.3628 19.2584C27.3311 23.4994 23.6558 27.0049 19.2834 26.9736Z" fill="#F26222"/>
<path d="M34.7768 36.3005L34.6976 28.3193H38.5947V35.7684C38.5947 35.7684 38.8165 38.3349 36.5511 38.3349C36.5511 38.3349 34.9828 38.2723 34.7768 36.3005Z" fill="white"/>
<path d="M36.6462 44C37.7223 44 38.5947 43.1382 38.5947 42.0751C38.5947 41.0121 37.7223 40.1503 36.6462 40.1503C35.57 40.1503 34.6976 41.0121 34.6976 42.0751C34.6976 43.1382 35.57 44 36.6462 44Z" fill="white"/>
<path d="M24.0994 33.6245L24.131 36.817C24.131 36.817 24.2419 37.5681 22.4835 37.8498V36.3631L24.0994 33.6245Z" fill="white"/>
<path d="M46.1513 20.3225V9.14893H47.3553V19.1958H51.7435V20.3069H46.1513V20.3225Z" fill="white"/>
<path d="M56.3851 20.4634C55.7673 20.4634 55.2128 20.2912 54.7376 19.9469C54.2465 19.6026 53.8663 19.1175 53.5811 18.4915C53.296 17.8656 53.1534 17.1457 53.1534 16.3476C53.1534 15.5495 53.296 14.8453 53.5811 14.2036C53.8663 13.5777 54.2465 13.0925 54.7376 12.7482C55.2287 12.404 55.7673 12.2318 56.3534 12.2318C56.9396 12.2318 57.4624 12.404 57.9218 12.7326C58.3971 13.0612 58.7614 13.5151 59.0307 14.0941C59.3 14.6731 59.4268 15.3147 59.4268 16.0346C59.4268 16.2224 59.4268 16.3945 59.4109 16.5354C59.3951 16.6762 59.3792 16.7858 59.3634 16.864H54.294C54.3415 17.3804 54.4524 17.8186 54.6425 18.2099C54.8326 18.6011 55.0703 18.8984 55.3712 19.1175C55.6722 19.3366 55.9891 19.4305 56.3376 19.4305C56.7653 19.4305 57.1139 19.321 57.3832 19.0862C57.6683 18.8515 57.8901 18.5228 58.0485 18.1003H59.2208C59.0782 18.5854 58.8723 19.008 58.6188 19.3679C58.3495 19.7122 58.0327 19.9939 57.6525 20.1817C57.2723 20.3538 56.8445 20.4634 56.3851 20.4634ZM58.2862 15.8155C58.2703 15.3304 58.1594 14.8922 58.001 14.501C57.8267 14.1097 57.605 13.8124 57.304 13.5933C57.0188 13.3742 56.702 13.2647 56.3534 13.2647C55.9891 13.2647 55.6564 13.3742 55.3554 13.5933C55.0544 13.8124 54.8168 14.1097 54.6267 14.501C54.4366 14.8922 54.3257 15.3304 54.294 15.8155H58.2862Z" fill="white"/>
<path d="M64.8764 20.4634C64.4962 20.4634 64.1002 20.3538 63.7199 20.1347C63.3397 19.9157 63.0387 19.6183 62.8011 19.2114H62.7377L62.5793 20.3225H61.613V9.14893H62.7377V13.4525H62.8011C63.0229 13.0613 63.3239 12.7483 63.7199 12.5292C64.1002 12.3101 64.4804 12.2005 64.8764 12.2005C65.4309 12.2005 65.922 12.3727 66.3814 12.717C66.8408 13.0613 67.1893 13.5464 67.4586 14.1724C67.7279 14.7983 67.8547 15.5182 67.8547 16.3163C67.8547 17.1144 67.7279 17.8343 67.4586 18.4603C67.1893 19.0862 66.8408 19.5714 66.3814 19.9157C65.922 20.2756 65.4309 20.4634 64.8764 20.4634ZM64.7338 19.4149C65.0824 19.4149 65.415 19.2897 65.7319 19.0393C66.0329 18.7889 66.2863 18.429 66.4606 17.9595C66.6349 17.49 66.7299 16.9579 66.7299 16.3476C66.7299 15.7373 66.6349 15.2052 66.4606 14.7357C66.2863 14.2663 66.0329 13.9063 65.7319 13.6559C65.4309 13.4055 65.0982 13.2803 64.7338 13.2803C64.3853 13.2803 64.0526 13.4055 63.7358 13.6559C63.4348 13.9063 63.1813 14.2663 63.0071 14.7357C62.8328 15.2052 62.7377 15.7373 62.7377 16.3476C62.7377 16.9579 62.8328 17.49 63.0071 17.9595C63.1813 18.429 63.4348 18.7889 63.7358 19.0393C64.0526 19.2897 64.3695 19.4149 64.7338 19.4149Z" fill="white"/>
<path d="M72.0528 20.4634C71.5934 20.4634 71.1815 20.3538 70.833 20.1504C70.4844 19.9469 70.2151 19.6496 70.025 19.2897C69.8349 18.9297 69.7399 18.5072 69.7399 18.0377C69.7399 17.5056 69.8508 17.0518 70.0567 16.6606C70.2785 16.285 70.5795 15.9877 70.9755 15.7842C71.3716 15.5808 71.8468 15.4869 72.4013 15.4869H74.0964V15.2208C74.0964 14.5792 73.9697 14.0941 73.7003 13.7654C73.431 13.4368 73.0667 13.2647 72.6072 13.2647C72.3221 13.2647 72.0528 13.3273 71.8468 13.4681C71.6251 13.609 71.4508 13.7811 71.3241 13.9845C71.1973 14.2036 71.134 14.4227 71.1023 14.6731H69.9775C70.0092 14.2193 70.1359 13.7967 70.3419 13.4212C70.5636 13.0456 70.8646 12.7639 71.2448 12.5448C71.6251 12.3257 72.0845 12.2318 72.6072 12.2318C73.1459 12.2318 73.6053 12.357 74.0013 12.5917C74.3974 12.8265 74.6984 13.1708 74.9043 13.6246C75.1103 14.0784 75.2212 14.6105 75.2212 15.2208V20.3225H74.2548L74.0964 19.3679H74.033C73.8429 19.6809 73.5895 19.9313 73.2568 20.1347C72.9241 20.3382 72.4964 20.4634 72.0528 20.4634ZM72.1637 19.4149C72.5597 19.4149 72.9082 19.3053 73.1934 19.1019C73.4786 18.8984 73.7003 18.6011 73.8588 18.2099C74.0172 17.8343 74.0806 17.3804 74.0806 16.864V16.5197H72.4488C71.8944 16.5197 71.4983 16.6606 71.2448 16.9266C70.9914 17.1926 70.8646 17.5682 70.8646 18.0221C70.8646 18.4446 70.9755 18.7732 71.1973 19.0236C71.4191 19.2897 71.7359 19.4149 72.1637 19.4149Z" fill="white"/>
<path d="M77.7242 20.3225V12.3414H78.6905L78.849 13.2177H78.9123C79.1341 12.9048 79.4193 12.6544 79.7361 12.4822C80.0529 12.3101 80.4331 12.2162 80.8609 12.2162C81.352 12.2162 81.7955 12.357 82.1916 12.6074C82.5876 12.8735 82.8886 13.249 83.1104 13.7342C83.3322 14.2193 83.4431 14.767 83.4431 15.4086V20.3225H82.3342V15.393C82.3342 14.9705 82.2708 14.6105 82.1282 14.2819C82.0015 13.9533 81.7955 13.7029 81.5579 13.5307C81.3044 13.3429 81.0351 13.2647 80.7183 13.2647C80.3539 13.2647 80.0371 13.3742 79.7519 13.5933C79.4668 13.8124 79.2608 14.1098 79.1024 14.501C78.944 14.8766 78.8648 15.3148 78.8648 15.7999V20.3225H77.7242Z" fill="white"/>
<path d="M88.7501 20.4634C88.1323 20.4634 87.5778 20.2912 87.1026 19.9469C86.6115 19.6026 86.2313 19.1175 85.9461 18.4915C85.661 17.8656 85.5184 17.1457 85.5184 16.3476C85.5184 15.5495 85.661 14.8453 85.9303 14.2036C86.2154 13.5777 86.5956 13.0925 87.0867 12.7482C87.5778 12.404 88.1164 12.2318 88.7026 12.2318C89.2887 12.2318 89.8115 12.404 90.2709 12.7326C90.7462 13.0612 91.1106 13.5151 91.3799 14.0941C91.6492 14.6731 91.7759 15.3147 91.7759 16.0346C91.7759 16.2224 91.7759 16.3945 91.7601 16.5354C91.7442 16.6762 91.7284 16.7858 91.7126 16.864H86.6432C86.6907 17.3804 86.8016 17.8186 86.9917 18.2099C87.1818 18.6011 87.4194 18.8984 87.7204 19.1175C88.0214 19.3366 88.3382 19.4305 88.6868 19.4305C89.1145 19.4305 89.463 19.321 89.7323 19.0862C90.0175 18.8515 90.2393 18.5228 90.3977 18.1003H91.57C91.4274 18.5854 91.2215 19.008 90.968 19.3679C90.6987 19.7122 90.3818 19.9939 90.0016 20.1817C89.6373 20.3538 89.2095 20.4634 88.7501 20.4634ZM90.6512 15.8155C90.6353 15.3304 90.5403 14.8922 90.366 14.501C90.1917 14.1097 89.9699 13.8124 89.669 13.5933C89.3838 13.3742 89.067 13.2647 88.7184 13.2647C88.3541 13.2647 88.0214 13.3742 87.7204 13.5933C87.4194 13.8124 87.1818 14.1097 86.9917 14.501C86.8016 14.8922 86.6907 15.3304 86.659 15.8155H90.6512Z" fill="white"/>
<path d="M96.1008 20.4634C95.5305 20.4634 95.0394 20.3538 94.6433 20.1347C94.2473 19.9156 93.9304 19.6183 93.7245 19.2584C93.5185 18.8984 93.4235 18.4759 93.4235 18.0221H94.5483C94.5483 18.2725 94.6116 18.5072 94.7384 18.7263C94.8651 18.9454 95.0394 19.1019 95.277 19.2427C95.5146 19.3679 95.7839 19.4305 96.1008 19.4305C96.5602 19.4305 96.9245 19.321 97.1939 19.1019C97.4632 18.8828 97.5899 18.5854 97.5899 18.2255C97.5899 17.9125 97.4949 17.6621 97.3206 17.4587C97.1305 17.2552 96.877 17.1144 96.5285 17.0049L95.4354 16.6919C94.8017 16.5041 94.3265 16.2224 94.0096 15.8625C93.6928 15.5025 93.5344 15.0174 93.5344 14.4227C93.5344 14.0471 93.6294 13.7029 93.8195 13.3586C94.0096 13.0299 94.2948 12.7482 94.675 12.5448C95.0552 12.3414 95.4988 12.2318 96.0374 12.2318C96.5602 12.2318 97.0354 12.3414 97.4315 12.5761C97.8275 12.8108 98.1444 13.1082 98.3503 13.4838C98.5563 13.8593 98.6672 14.2506 98.6672 14.6731H97.5424C97.5424 14.4227 97.479 14.2036 97.3523 13.9845C97.2255 13.7654 97.0513 13.5933 96.8295 13.4681C96.6077 13.3429 96.3384 13.2803 96.0374 13.2803C95.6097 13.2803 95.277 13.3899 95.0235 13.6246C94.7859 13.8593 94.6592 14.1254 94.6592 14.4227C94.6592 14.7044 94.7384 14.9548 94.8968 15.1739C95.0552 15.393 95.3245 15.5338 95.673 15.6434L96.7661 15.9564C97.4315 16.1441 97.9226 16.4258 98.2394 16.8014C98.5563 17.177 98.7147 17.6465 98.7147 18.2255C98.7147 18.648 98.6196 19.0236 98.4137 19.3523C98.2077 19.6965 97.9067 19.9626 97.5107 20.166C97.1147 20.3538 96.6394 20.4634 96.1008 20.4634Z" fill="white"/>
<path d="M103.689 20.4634C103.071 20.4634 102.517 20.2912 102.041 19.9469C101.55 19.6026 101.17 19.1175 100.885 18.4915C100.6 17.8656 100.457 17.1457 100.457 16.3476C100.457 15.5495 100.6 14.8453 100.869 14.2036C101.154 13.5777 101.535 13.0925 102.026 12.7482C102.517 12.404 103.055 12.2318 103.642 12.2318C104.228 12.2318 104.75 12.404 105.21 12.7326C105.685 13.0612 106.049 13.5151 106.319 14.0941C106.588 14.6731 106.715 15.3147 106.715 16.0346C106.715 16.2224 106.715 16.3945 106.699 16.5354C106.683 16.6762 106.667 16.7858 106.651 16.864H101.582C101.63 17.3804 101.74 17.8186 101.931 18.2099C102.121 18.6011 102.358 18.8984 102.659 19.1175C102.96 19.3366 103.277 19.4305 103.626 19.4305C104.053 19.4305 104.402 19.321 104.671 19.0862C104.956 18.8515 105.178 18.5228 105.337 18.1003H106.509C106.366 18.5854 106.16 19.008 105.907 19.3679C105.638 19.7122 105.321 19.9939 104.941 20.1817C104.56 20.3538 104.148 20.4634 103.689 20.4634ZM105.59 15.8155C105.574 15.3304 105.479 14.8922 105.305 14.501C105.131 14.1097 104.909 13.8124 104.608 13.5933C104.323 13.3742 104.006 13.2647 103.657 13.2647C103.293 13.2647 102.96 13.3742 102.659 13.5933C102.358 13.8124 102.121 14.1097 101.931 14.501C101.74 14.8922 101.63 15.3304 101.598 15.8155H105.59Z" fill="white"/>
<path d="M46.4364 38.7731V22.3726H52.0761C53.09 22.3726 53.993 22.6073 54.801 23.0611C55.6089 23.515 56.2426 24.1722 56.702 25.0173C57.1614 25.8624 57.3832 26.8326 57.3832 27.9437C57.3832 29.0705 57.1614 30.0564 56.702 30.9014C56.2426 31.7465 55.6089 32.4038 54.801 32.8576C53.993 33.3114 53.09 33.5462 52.0761 33.5462H49.6999V38.7731H46.4364ZM52.0603 30.2911C52.4247 30.2911 52.7573 30.2129 53.0742 30.0407C53.391 29.8686 53.6445 29.6025 53.8346 29.2583C54.0247 28.914 54.1198 28.4758 54.1198 27.9594C54.1198 27.4586 54.0247 27.0361 53.8346 26.6761C53.6445 26.3162 53.391 26.0501 53.0742 25.878C52.7573 25.7059 52.4247 25.6276 52.0603 25.6276H49.7157V30.3068H52.0603V30.2911Z" fill="white"/>
<path d="M65.5576 38.9609C64.5754 38.9609 63.6883 38.6949 62.8803 38.1472C62.0724 37.6151 61.4387 36.8639 60.9951 35.9406C60.5516 35.0017 60.3139 33.9532 60.3139 32.7951C60.3139 31.6371 60.5357 30.5886 60.9951 29.6496C61.4387 28.7106 62.0724 27.9751 62.8803 27.443C63.6883 26.911 64.5754 26.6293 65.5576 26.6293C66.5556 26.6293 67.4586 26.8953 68.2666 27.443C69.0745 27.9751 69.7082 28.7263 70.1517 29.6496C70.5953 30.5886 70.833 31.6371 70.833 32.7951C70.833 33.9532 70.6112 35.0017 70.1517 35.9406C69.7082 36.8796 69.0745 37.6151 68.2666 38.1472C67.4586 38.6949 66.5556 38.9609 65.5576 38.9609ZM65.5576 35.9563C65.9853 35.9563 66.3497 35.8154 66.6665 35.5494C66.9834 35.2834 67.221 34.9078 67.3953 34.4383C67.5695 33.9688 67.6487 33.4211 67.6487 32.7951C67.6487 32.1848 67.5695 31.6371 67.3953 31.1676C67.221 30.6981 66.9834 30.3225 66.6665 30.0565C66.3497 29.7904 65.9853 29.6652 65.5576 29.6652C65.1457 29.6652 64.7814 29.7904 64.4645 30.0565C64.1477 30.3225 63.91 30.6981 63.7358 31.1676C63.5615 31.6371 63.4823 32.1848 63.4823 32.7951C63.4823 33.4211 63.5615 33.9688 63.7358 34.4383C63.91 34.9078 64.1477 35.2834 64.4645 35.5494C64.7814 35.8311 65.1457 35.9563 65.5576 35.9563Z" fill="white"/>
<path d="M74.2865 38.7731V22.3726H77.439V32.1221L80.8292 26.8326H84.3144L80.544 32.6855L84.552 38.7731H81.0668L77.439 33.2488V38.7731H74.2865Z" fill="white"/>
<path d="M91.7918 38.9609C90.8096 38.9609 89.9224 38.6949 89.1145 38.1628C88.3065 37.6307 87.6729 36.8952 87.2135 35.9562C86.754 35.0173 86.5323 33.9531 86.5323 32.8107C86.5323 31.6527 86.754 30.6042 87.2135 29.6652C87.6729 28.7262 88.3066 27.9751 89.0986 27.4586C89.8907 26.9266 90.7937 26.6605 91.7601 26.6605C92.7264 26.6605 93.5977 26.9109 94.3898 27.4273C95.1819 27.9438 95.7998 28.648 96.2433 29.54C96.6869 30.432 96.9087 31.4179 96.9087 32.4977C96.9087 32.8264 96.8929 33.108 96.877 33.3271C96.8453 33.5462 96.8295 33.734 96.7978 33.8592H89.7006C89.7482 34.3287 89.8591 34.7356 90.0492 35.0955C90.2393 35.4398 90.4769 35.7215 90.762 35.9093C91.0472 36.0971 91.364 36.2066 91.7126 36.2066C92.172 36.2066 92.5205 36.1127 92.774 35.9249C93.0274 35.7371 93.2175 35.518 93.3443 35.252H96.5919C96.4018 35.9406 96.1008 36.5665 95.7047 37.1143C95.3087 37.662 94.77 38.1158 94.1205 38.4758C93.471 38.7887 92.6948 38.9609 91.7918 38.9609ZM93.6611 31.6996C93.6136 31.2301 93.5185 30.8232 93.3601 30.479C93.2175 30.1347 93.0116 29.8686 92.7581 29.6965C92.5047 29.5244 92.1878 29.4305 91.8076 29.4305C91.4274 29.4305 91.0947 29.5244 90.7937 29.6965C90.5086 29.8686 90.2551 30.1347 90.065 30.4946C89.8749 30.8389 89.764 31.2458 89.7165 31.6996H93.6611Z" fill="white"/>
<path d="M100.251 38.7731V26.817H102.929L103.166 27.8655H103.277C103.531 27.5212 103.8 27.2552 104.101 27.0831C104.386 26.9109 104.782 26.817 105.273 26.817H107V30.0564H105.432C104.75 30.0564 104.244 30.2286 103.895 30.5729C103.562 30.9171 103.388 31.4179 103.388 32.0908V38.7731H100.251Z" fill="white"/>
</svg>
