<svg width="33" height="27" viewBox="0 0 33 27" fill="none" xmlns="http://www.w3.org/2000/svg">
<path d="M32.9477 8.14069C32.8343 7.60345 32.5397 7.12152 32.1132 6.77564C31.6867 6.42977 31.1544 6.24099 30.6053 6.24091C30.3455 6.24087 30.0875 6.28264 29.841 6.36463C29.4538 6.49529 29.1064 6.72277 28.8319 7.02548C28.5574 7.32819 28.3649 7.69607 28.2726 8.09416C28.1803 8.49225 28.1913 8.90732 28.3046 9.29994C28.4179 9.69257 28.6298 10.0497 28.92 10.3374L25.1589 15.0717L25.0599 7.40113C25.6267 7.31594 26.1441 7.03014 26.518 6.59572C26.8919 6.1613 27.0974 5.60711 27.0972 5.03396C27.0983 4.7631 27.0518 4.49416 26.9597 4.23943C26.9625 4.23668 26.9597 4.23668 26.9597 4.23392C26.8267 3.85971 26.6029 3.5244 26.3082 3.25811C26.0136 2.99183 25.6574 2.8029 25.2717 2.70831C24.886 2.61373 24.4829 2.61644 24.0985 2.71621C23.7141 2.81598 23.3605 3.00969 23.0695 3.27992V3.28265C22.8101 3.52443 22.6077 3.8208 22.4768 4.15035C22.346 4.4799 22.29 4.8344 22.3129 5.18824C22.3358 5.54207 22.437 5.88641 22.6092 6.19636C22.7814 6.5063 23.0203 6.77413 23.3086 6.98048C22.855 7.84376 19.1847 14.2139 19.1847 14.2139C19.1847 14.2139 18.4396 8.49534 18.0657 4.81401C18.5299 4.49515 18.8798 4.03619 19.0645 3.5042C19.2491 2.97222 19.2588 2.39513 19.092 1.85728C18.9252 1.31943 18.5907 0.849043 18.1375 0.514877C17.6842 0.180711 17.136 0.00029391 16.5728 1.17909e-07C16.548 0.000465054 16.5232 0.00230238 16.4986 0.00550423C16.4749 0.00230239 16.451 0.000464848 16.4271 1.17909e-07C15.8638 -0.000168253 15.3152 0.17999 14.8616 0.514104C14.4081 0.848218 14.0733 1.31874 13.9065 1.85681C13.7396 2.39487 13.7494 2.97222 13.9343 3.50434C14.1193 4.03646 14.4697 4.49541 14.9343 4.81401C14.5604 8.49533 13.8153 14.2139 13.8153 14.2139C13.8153 14.2139 10.145 7.84376 9.69134 6.98048C9.97968 6.77413 10.2186 6.5063 10.3908 6.19636C10.563 5.88641 10.6642 5.54208 10.6871 5.18824C10.71 4.83441 10.654 4.47991 10.5231 4.15036C10.3923 3.8208 10.1899 3.52443 9.93053 3.28266V3.27992C9.63951 3.00969 9.28592 2.81599 8.90152 2.71622C8.51712 2.61645 8.11396 2.61374 7.72825 2.70832C7.34254 2.80291 6.98637 2.99183 6.69175 3.25812C6.39712 3.52441 6.17325 3.85972 6.04027 4.23393C6.04027 4.23668 6.03752 4.23668 6.04027 4.23943C5.94821 4.49417 5.90168 4.76311 5.90281 5.03397C5.9026 5.60712 6.10812 6.16131 6.48199 6.59573C6.85587 7.03015 7.37325 7.31595 7.94003 7.40113L7.84106 15.0717L4.08002 10.3374C4.37023 10.0497 4.58206 9.69256 4.69537 9.29993C4.80869 8.90731 4.81972 8.49223 4.72743 8.09414C4.63514 7.69605 4.44259 7.32817 4.16807 7.02546C3.89355 6.72275 3.54619 6.49527 3.15899 6.36462C2.91251 6.28263 2.65445 6.24085 2.39469 6.2409C1.84561 6.24097 1.31323 6.42976 0.886775 6.77564C0.460319 7.12151 0.165696 7.60345 0.0522772 8.14069C0.0166646 8.30321 -0.000856943 8.46918 3.22111e-05 8.63556C-8.21487e-05 9.25989 0.243679 9.85957 0.679349 10.3068C1.11502 10.754 1.70814 11.0133 2.33226 11.0295L2.39468 11.0797L5.05097 22.6481C5.07506 22.753 5.13401 22.8466 5.21819 22.9136C5.30237 22.9807 5.40681 23.0172 5.51443 23.0172H27.4855C27.5931 23.0172 27.6976 22.9807 27.7818 22.9136C27.8659 22.8466 27.9249 22.753 27.949 22.6481L30.6053 11.0797L30.6677 11.0295C31.2918 11.0133 31.8849 10.754 32.3206 10.3068C32.7563 9.85957 33 9.25989 32.9999 8.63556C33.0008 8.46918 32.9833 8.30321 32.9477 8.14069Z" fill="#292929"/>
<path d="M32.9477 8.14069C32.8343 7.60345 32.5397 7.12152 32.1132 6.77564C31.6867 6.42977 31.1544 6.24099 30.6053 6.24091C30.3455 6.24087 30.0875 6.28264 29.841 6.36463C29.4538 6.49529 29.1064 6.72277 28.8319 7.02548C28.5574 7.32819 28.3649 7.69607 28.2726 8.09416C28.1803 8.49225 28.1913 8.90732 28.3046 9.29994C28.4179 9.69257 28.6298 10.0497 28.92 10.3374L25.1589 15.0717L25.0599 7.40113C25.6267 7.31594 26.1441 7.03014 26.518 6.59572C26.8919 6.1613 27.0974 5.60711 27.0972 5.03396C27.0983 4.7631 27.0518 4.49416 26.9597 4.23943C26.9625 4.23668 26.9597 4.23668 26.9597 4.23392C26.8267 3.85971 26.6029 3.5244 26.3082 3.25811C26.0136 2.99183 25.6574 2.8029 25.2717 2.70831C24.886 2.61373 24.4829 2.61644 24.0985 2.71621C23.7141 2.81598 23.3605 3.00969 23.0695 3.27992V3.28265C22.8101 3.52443 22.6077 3.8208 22.4768 4.15035C22.346 4.4799 22.29 4.8344 22.3129 5.18824C22.3358 5.54207 22.437 5.88641 22.6092 6.19636C22.7814 6.5063 23.0203 6.77413 23.3086 6.98048C22.855 7.84376 19.1847 14.2139 19.1847 14.2139C19.1847 14.2139 18.4396 8.49534 18.0657 4.81401C18.5299 4.49515 18.8798 4.03619 19.0645 3.5042C19.2491 2.97222 19.2588 2.39513 19.092 1.85728C18.9252 1.31943 18.5907 0.849043 18.1375 0.514877C17.6842 0.180711 17.136 0.00029391 16.5728 1.17909e-07C16.548 0.000465054 16.5232 0.00230238 16.4986 0.00550423C16.4749 0.00230239 16.451 0.000464848 16.4271 1.17909e-07C15.8638 -0.000168253 15.3152 0.17999 14.8616 0.514104C14.4081 0.848218 14.0733 1.31874 13.9065 1.85681C13.7396 2.39487 13.7494 2.97222 13.9343 3.50434C14.1193 4.03646 14.4697 4.49541 14.9343 4.81401C14.5604 8.49533 13.8153 14.2139 13.8153 14.2139C13.8153 14.2139 10.145 7.84376 9.69134 6.98048C9.97968 6.77413 10.2186 6.5063 10.3908 6.19636C10.563 5.88641 10.6642 5.54208 10.6871 5.18824C10.71 4.83441 10.654 4.47991 10.5231 4.15036C10.3923 3.8208 10.1899 3.52443 9.93053 3.28266V3.27992C9.63951 3.00969 9.28592 2.81599 8.90152 2.71622C8.51712 2.61645 8.11396 2.61374 7.72825 2.70832C7.34254 2.80291 6.98637 2.99183 6.69175 3.25812C6.39712 3.52441 6.17325 3.85972 6.04027 4.23393C6.04027 4.23668 6.03752 4.23668 6.04027 4.23943C5.94821 4.49417 5.90168 4.76311 5.90281 5.03397C5.9026 5.60712 6.10812 6.16131 6.48199 6.59573C6.85587 7.03015 7.37325 7.31595 7.94003 7.40113L7.84106 15.0717L4.08002 10.3374C4.37023 10.0497 4.58206 9.69256 4.69537 9.29993C4.80869 8.90731 4.81972 8.49223 4.72743 8.09414C4.63514 7.69605 4.44259 7.32817 4.16807 7.02546C3.89355 6.72275 3.54619 6.49527 3.15899 6.36462C2.91251 6.28263 2.65445 6.24085 2.39469 6.2409C1.84561 6.24097 1.31323 6.42976 0.886775 6.77564C0.460319 7.12151 0.165696 7.60345 0.0522772 8.14069C0.0166646 8.30321 -0.000856943 8.46918 3.22111e-05 8.63556C-8.21487e-05 9.25989 0.243679 9.85957 0.679349 10.3068C1.11502 10.754 1.70814 11.0133 2.33226 11.0295L2.39468 11.0797L5.05097 22.6481C5.07506 22.753 5.13401 22.8466 5.21819 22.9136C5.30237 22.9807 5.40681 23.0172 5.51443 23.0172H27.4855C27.5931 23.0172 27.6976 22.9807 27.7818 22.9136C27.8659 22.8466 27.9249 22.753 27.949 22.6481L30.6053 11.0797L30.6677 11.0295C31.2918 11.0133 31.8849 10.754 32.3206 10.3068C32.7563 9.85957 33 9.25989 32.9999 8.63556C33.0008 8.46918 32.9833 8.30321 32.9477 8.14069Z" fill="#292929"/>
<path d="M32.9477 8.14069C32.8343 7.60345 32.5397 7.12152 32.1132 6.77564C31.6867 6.42977 31.1544 6.24099 30.6053 6.24091C30.3455 6.24087 30.0875 6.28264 29.841 6.36463C29.4538 6.49529 29.1064 6.72277 28.8319 7.02548C28.5574 7.32819 28.3649 7.69607 28.2726 8.09416C28.1803 8.49225 28.1913 8.90732 28.3046 9.29994C28.4179 9.69257 28.6298 10.0497 28.92 10.3374L25.1589 15.0717L25.0599 7.40113C25.6267 7.31594 26.1441 7.03014 26.518 6.59572C26.8919 6.1613 27.0974 5.60711 27.0972 5.03396C27.0983 4.7631 27.0518 4.49416 26.9597 4.23943C26.9625 4.23668 26.9597 4.23668 26.9597 4.23392C26.8267 3.85971 26.6029 3.5244 26.3082 3.25811C26.0136 2.99183 25.6574 2.8029 25.2717 2.70831C24.886 2.61373 24.4829 2.61644 24.0985 2.71621C23.7141 2.81598 23.3605 3.00969 23.0695 3.27992V3.28265C22.8101 3.52443 22.6077 3.8208 22.4768 4.15035C22.346 4.4799 22.29 4.8344 22.3129 5.18824C22.3358 5.54207 22.437 5.88641 22.6092 6.19636C22.7814 6.5063 23.0203 6.77413 23.3086 6.98048C22.855 7.84376 19.1847 14.2139 19.1847 14.2139C19.1847 14.2139 18.4396 8.49534 18.0657 4.81401C18.5299 4.49515 18.8798 4.03619 19.0645 3.5042C19.2491 2.97222 19.2588 2.39513 19.092 1.85728C18.9252 1.31943 18.5907 0.849043 18.1375 0.514877C17.6842 0.180711 17.136 0.00029391 16.5728 1.17909e-07C16.548 0.000465054 16.5232 0.00230238 16.4986 0.00550423C16.4749 0.00230239 16.451 0.000464848 16.4271 1.17909e-07C15.8638 -0.000168253 15.3152 0.17999 14.8616 0.514104C14.4081 0.848218 14.0733 1.31874 13.9065 1.85681C13.7396 2.39487 13.7494 2.97222 13.9343 3.50434C14.1193 4.03646 14.4697 4.49541 14.9343 4.81401C14.5604 8.49533 13.8153 14.2139 13.8153 14.2139C13.8153 14.2139 10.145 7.84376 9.69134 6.98048C9.97968 6.77413 10.2186 6.5063 10.3908 6.19636C10.563 5.88641 10.6642 5.54208 10.6871 5.18824C10.71 4.83441 10.654 4.47991 10.5231 4.15036C10.3923 3.8208 10.1899 3.52443 9.93053 3.28266V3.27992C9.63951 3.00969 9.28592 2.81599 8.90152 2.71622C8.51712 2.61645 8.11396 2.61374 7.72825 2.70832C7.34254 2.80291 6.98637 2.99183 6.69175 3.25812C6.39712 3.52441 6.17325 3.85972 6.04027 4.23393C6.04027 4.23668 6.03752 4.23668 6.04027 4.23943C5.94821 4.49417 5.90168 4.76311 5.90281 5.03397C5.9026 5.60712 6.10812 6.16131 6.48199 6.59573C6.85587 7.03015 7.37325 7.31595 7.94003 7.40113L7.84106 15.0717L4.08002 10.3374C4.37023 10.0497 4.58206 9.69256 4.69537 9.29993C4.80869 8.90731 4.81972 8.49223 4.72743 8.09414C4.63514 7.69605 4.44259 7.32817 4.16807 7.02546C3.89355 6.72275 3.54619 6.49527 3.15899 6.36462C2.91251 6.28263 2.65445 6.24085 2.39469 6.2409C1.84561 6.24097 1.31323 6.42976 0.886775 6.77564C0.460319 7.12151 0.165696 7.60345 0.0522772 8.14069C0.0166646 8.30321 -0.000856943 8.46918 3.22111e-05 8.63556C-8.21487e-05 9.25989 0.243679 9.85957 0.679349 10.3068C1.11502 10.754 1.70814 11.0133 2.33226 11.0295L2.39468 11.0797L5.05097 22.6481C5.07506 22.753 5.13401 22.8466 5.21819 22.9136C5.30237 22.9807 5.40681 23.0172 5.51443 23.0172H27.4855C27.5931 23.0172 27.6976 22.9807 27.7818 22.9136C27.8659 22.8466 27.9249 22.753 27.949 22.6481L30.6053 11.0797L30.6677 11.0295C31.2918 11.0133 31.8849 10.754 32.3206 10.3068C32.7563 9.85957 33 9.25989 32.9999 8.63556C33.0008 8.46918 32.9833 8.30321 32.9477 8.14069Z" fill="#292929"/>
<path d="M6.69398 24.9622H26.6563L28.4727 26.5704H4.87754L6.69398 24.9622Z" fill="#292929"/>
<path d="M6.69398 24.9622H26.6563L28.4727 26.5704H4.87754L6.69398 24.9622Z" fill="#292929"/>
<path d="M6.69398 24.9622H26.6563L28.4727 26.5704H4.87754L6.69398 24.9622Z" fill="#292929"/>
</svg>
